<mxfile host="Electron" modified="2023-07-17T13:32:23.449Z" agent="Mozilla/5.0 (Windows NT 6.1; Win64; x64) AppleWebKit/537.36 (KHTML, like Gecko) draw.io/21.1.2 Chrome/106.0.5249.199 Electron/21.4.3 Safari/537.36" etag="raqjxOvkhCU_P9q0VJ0l" version="21.1.2" type="device">
  <diagram name="ページ1" id="mtlcL68E5AI3Iho4TW-G">
    <mxGraphModel dx="1418" dy="775" grid="1" gridSize="10" guides="1" tooltips="1" connect="1" arrows="1" fold="1" page="1" pageScale="1" pageWidth="1169" pageHeight="827" math="0" shadow="0">
      <root>
        <mxCell id="0" />
        <mxCell id="1" parent="0" />
        <mxCell id="j9-dcWAEOjWl5oAE17kt-1" value="" style="rounded=1;whiteSpace=wrap;html=1;arcSize=6;strokeColor=#9673a6;fillColor=#D0CEE2;" vertex="1" parent="1">
          <mxGeometry x="360" width="760" height="520" as="geometry" />
        </mxCell>
        <mxCell id="j9-dcWAEOjWl5oAE17kt-2" value="" style="group" vertex="1" connectable="0" parent="1">
          <mxGeometry x="401.5" y="50.5" width="115" height="223.5" as="geometry" />
        </mxCell>
        <mxCell id="j9-dcWAEOjWl5oAE17kt-3" value="" style="shape=parallelogram;perimeter=parallelogramPerimeter;whiteSpace=wrap;html=1;fixedSize=1;flipH=1;rotation=-90;container=0;" vertex="1" parent="j9-dcWAEOjWl5oAE17kt-2">
          <mxGeometry x="-13.5" y="74" width="56" height="29" as="geometry" />
        </mxCell>
        <mxCell id="j9-dcWAEOjWl5oAE17kt-4" value="" style="shape=parallelogram;perimeter=parallelogramPerimeter;whiteSpace=wrap;html=1;fixedSize=1;flipH=1;rotation=-90;container=0;" vertex="1" parent="j9-dcWAEOjWl5oAE17kt-2">
          <mxGeometry x="-13.5" y="109.5" width="56" height="29" as="geometry" />
        </mxCell>
        <mxCell id="j9-dcWAEOjWl5oAE17kt-5" value="" style="shape=parallelogram;perimeter=parallelogramPerimeter;whiteSpace=wrap;html=1;fixedSize=1;flipH=1;rotation=-90;container=0;" vertex="1" parent="j9-dcWAEOjWl5oAE17kt-2">
          <mxGeometry x="-13.5" y="145.5" width="56" height="29" as="geometry" />
        </mxCell>
        <mxCell id="j9-dcWAEOjWl5oAE17kt-6" value="" style="shape=parallelogram;perimeter=parallelogramPerimeter;whiteSpace=wrap;html=1;fixedSize=1;flipH=1;rotation=-90;container=0;" vertex="1" parent="j9-dcWAEOjWl5oAE17kt-2">
          <mxGeometry x="-13.5" y="181" width="56" height="29" as="geometry" />
        </mxCell>
        <mxCell id="j9-dcWAEOjWl5oAE17kt-7" value="" style="shape=parallelogram;perimeter=parallelogramPerimeter;whiteSpace=wrap;html=1;fixedSize=1;flipH=1;rotation=-90;container=0;" vertex="1" parent="j9-dcWAEOjWl5oAE17kt-2">
          <mxGeometry x="15" y="54" width="56" height="29" as="geometry" />
        </mxCell>
        <mxCell id="j9-dcWAEOjWl5oAE17kt-8" value="" style="shape=parallelogram;perimeter=parallelogramPerimeter;whiteSpace=wrap;html=1;fixedSize=1;flipH=1;rotation=-90;container=0;" vertex="1" parent="j9-dcWAEOjWl5oAE17kt-2">
          <mxGeometry x="15" y="89.5" width="56" height="29" as="geometry" />
        </mxCell>
        <mxCell id="j9-dcWAEOjWl5oAE17kt-9" value="" style="shape=parallelogram;perimeter=parallelogramPerimeter;whiteSpace=wrap;html=1;fixedSize=1;flipH=1;rotation=-90;container=0;" vertex="1" parent="j9-dcWAEOjWl5oAE17kt-2">
          <mxGeometry x="15" y="125.5" width="56" height="29" as="geometry" />
        </mxCell>
        <mxCell id="j9-dcWAEOjWl5oAE17kt-10" value="" style="shape=parallelogram;perimeter=parallelogramPerimeter;whiteSpace=wrap;html=1;fixedSize=1;flipH=1;rotation=-90;container=0;" vertex="1" parent="j9-dcWAEOjWl5oAE17kt-2">
          <mxGeometry x="15" y="161" width="56" height="29" as="geometry" />
        </mxCell>
        <mxCell id="j9-dcWAEOjWl5oAE17kt-11" value="" style="shape=parallelogram;perimeter=parallelogramPerimeter;whiteSpace=wrap;html=1;fixedSize=1;flipH=1;rotation=-90;container=0;" vertex="1" parent="j9-dcWAEOjWl5oAE17kt-2">
          <mxGeometry x="44" y="33.5" width="56" height="29" as="geometry" />
        </mxCell>
        <mxCell id="j9-dcWAEOjWl5oAE17kt-12" value="" style="shape=parallelogram;perimeter=parallelogramPerimeter;whiteSpace=wrap;html=1;fixedSize=1;flipH=1;rotation=-90;container=0;" vertex="1" parent="j9-dcWAEOjWl5oAE17kt-2">
          <mxGeometry x="44" y="69" width="56" height="29" as="geometry" />
        </mxCell>
        <mxCell id="j9-dcWAEOjWl5oAE17kt-13" value="" style="shape=parallelogram;perimeter=parallelogramPerimeter;whiteSpace=wrap;html=1;fixedSize=1;flipH=1;rotation=-90;fillColor=#d5e8d4;strokeColor=#82b366;container=0;" vertex="1" parent="j9-dcWAEOjWl5oAE17kt-2">
          <mxGeometry x="44" y="105" width="56" height="29" as="geometry" />
        </mxCell>
        <mxCell id="j9-dcWAEOjWl5oAE17kt-14" value="" style="shape=parallelogram;perimeter=parallelogramPerimeter;whiteSpace=wrap;html=1;fixedSize=1;flipH=1;rotation=-90;container=0;" vertex="1" parent="j9-dcWAEOjWl5oAE17kt-2">
          <mxGeometry x="44" y="140.5" width="56" height="29" as="geometry" />
        </mxCell>
        <mxCell id="j9-dcWAEOjWl5oAE17kt-15" value="" style="shape=parallelogram;perimeter=parallelogramPerimeter;whiteSpace=wrap;html=1;fixedSize=1;flipH=1;rotation=-90;container=0;" vertex="1" parent="j9-dcWAEOjWl5oAE17kt-2">
          <mxGeometry x="72.5" y="13.5" width="56" height="29" as="geometry" />
        </mxCell>
        <mxCell id="j9-dcWAEOjWl5oAE17kt-16" value="" style="shape=parallelogram;perimeter=parallelogramPerimeter;whiteSpace=wrap;html=1;fixedSize=1;flipH=1;rotation=-90;container=0;" vertex="1" parent="j9-dcWAEOjWl5oAE17kt-2">
          <mxGeometry x="72.5" y="49" width="56" height="29" as="geometry" />
        </mxCell>
        <mxCell id="j9-dcWAEOjWl5oAE17kt-17" value="" style="shape=parallelogram;perimeter=parallelogramPerimeter;whiteSpace=wrap;html=1;fixedSize=1;flipH=1;rotation=-90;container=0;" vertex="1" parent="j9-dcWAEOjWl5oAE17kt-2">
          <mxGeometry x="72.5" y="85" width="56" height="29" as="geometry" />
        </mxCell>
        <mxCell id="j9-dcWAEOjWl5oAE17kt-18" value="" style="shape=parallelogram;perimeter=parallelogramPerimeter;whiteSpace=wrap;html=1;fixedSize=1;flipH=1;rotation=-90;container=0;" vertex="1" parent="j9-dcWAEOjWl5oAE17kt-2">
          <mxGeometry x="72.5" y="120.5" width="56" height="29" as="geometry" />
        </mxCell>
        <mxCell id="j9-dcWAEOjWl5oAE17kt-19" value="" style="group" vertex="1" connectable="0" parent="1">
          <mxGeometry x="401.5" y="270" width="115" height="223.5" as="geometry" />
        </mxCell>
        <mxCell id="j9-dcWAEOjWl5oAE17kt-20" value="" style="shape=parallelogram;perimeter=parallelogramPerimeter;whiteSpace=wrap;html=1;fixedSize=1;flipH=1;rotation=-90;container=0;" vertex="1" parent="j9-dcWAEOjWl5oAE17kt-19">
          <mxGeometry x="-13.5" y="74" width="56" height="29" as="geometry" />
        </mxCell>
        <mxCell id="j9-dcWAEOjWl5oAE17kt-21" value="" style="shape=parallelogram;perimeter=parallelogramPerimeter;whiteSpace=wrap;html=1;fixedSize=1;flipH=1;rotation=-90;container=0;" vertex="1" parent="j9-dcWAEOjWl5oAE17kt-19">
          <mxGeometry x="-13.5" y="109.5" width="56" height="29" as="geometry" />
        </mxCell>
        <mxCell id="j9-dcWAEOjWl5oAE17kt-22" value="" style="shape=parallelogram;perimeter=parallelogramPerimeter;whiteSpace=wrap;html=1;fixedSize=1;flipH=1;rotation=-90;container=0;" vertex="1" parent="j9-dcWAEOjWl5oAE17kt-19">
          <mxGeometry x="-13.5" y="145.5" width="56" height="29" as="geometry" />
        </mxCell>
        <mxCell id="j9-dcWAEOjWl5oAE17kt-23" value="" style="shape=parallelogram;perimeter=parallelogramPerimeter;whiteSpace=wrap;html=1;fixedSize=1;flipH=1;rotation=-90;container=0;" vertex="1" parent="j9-dcWAEOjWl5oAE17kt-19">
          <mxGeometry x="-13.5" y="181" width="56" height="29" as="geometry" />
        </mxCell>
        <mxCell id="j9-dcWAEOjWl5oAE17kt-24" value="" style="shape=parallelogram;perimeter=parallelogramPerimeter;whiteSpace=wrap;html=1;fixedSize=1;flipH=1;rotation=-90;container=0;" vertex="1" parent="j9-dcWAEOjWl5oAE17kt-19">
          <mxGeometry x="15" y="54" width="56" height="29" as="geometry" />
        </mxCell>
        <mxCell id="j9-dcWAEOjWl5oAE17kt-25" value="" style="shape=parallelogram;perimeter=parallelogramPerimeter;whiteSpace=wrap;html=1;fixedSize=1;flipH=1;rotation=-90;container=0;" vertex="1" parent="j9-dcWAEOjWl5oAE17kt-19">
          <mxGeometry x="15" y="89.5" width="56" height="29" as="geometry" />
        </mxCell>
        <mxCell id="j9-dcWAEOjWl5oAE17kt-26" value="" style="shape=parallelogram;perimeter=parallelogramPerimeter;whiteSpace=wrap;html=1;fixedSize=1;flipH=1;rotation=-90;container=0;" vertex="1" parent="j9-dcWAEOjWl5oAE17kt-19">
          <mxGeometry x="15" y="125.5" width="56" height="29" as="geometry" />
        </mxCell>
        <mxCell id="j9-dcWAEOjWl5oAE17kt-27" value="" style="shape=parallelogram;perimeter=parallelogramPerimeter;whiteSpace=wrap;html=1;fixedSize=1;flipH=1;rotation=-90;container=0;" vertex="1" parent="j9-dcWAEOjWl5oAE17kt-19">
          <mxGeometry x="15" y="161" width="56" height="29" as="geometry" />
        </mxCell>
        <mxCell id="j9-dcWAEOjWl5oAE17kt-28" value="" style="shape=parallelogram;perimeter=parallelogramPerimeter;whiteSpace=wrap;html=1;fixedSize=1;flipH=1;rotation=-90;container=0;" vertex="1" parent="j9-dcWAEOjWl5oAE17kt-19">
          <mxGeometry x="44" y="33.5" width="56" height="29" as="geometry" />
        </mxCell>
        <mxCell id="j9-dcWAEOjWl5oAE17kt-29" value="" style="shape=parallelogram;perimeter=parallelogramPerimeter;whiteSpace=wrap;html=1;fixedSize=1;flipH=1;rotation=-90;container=0;" vertex="1" parent="j9-dcWAEOjWl5oAE17kt-19">
          <mxGeometry x="44" y="69" width="56" height="29" as="geometry" />
        </mxCell>
        <mxCell id="j9-dcWAEOjWl5oAE17kt-30" value="" style="shape=parallelogram;perimeter=parallelogramPerimeter;whiteSpace=wrap;html=1;fixedSize=1;flipH=1;rotation=-90;fillColor=#d5e8d4;strokeColor=#82b366;container=0;" vertex="1" parent="j9-dcWAEOjWl5oAE17kt-19">
          <mxGeometry x="44" y="105" width="56" height="29" as="geometry" />
        </mxCell>
        <mxCell id="j9-dcWAEOjWl5oAE17kt-31" value="" style="shape=parallelogram;perimeter=parallelogramPerimeter;whiteSpace=wrap;html=1;fixedSize=1;flipH=1;rotation=-90;container=0;" vertex="1" parent="j9-dcWAEOjWl5oAE17kt-19">
          <mxGeometry x="44" y="140.5" width="56" height="29" as="geometry" />
        </mxCell>
        <mxCell id="j9-dcWAEOjWl5oAE17kt-32" value="" style="shape=parallelogram;perimeter=parallelogramPerimeter;whiteSpace=wrap;html=1;fixedSize=1;flipH=1;rotation=-90;container=0;" vertex="1" parent="j9-dcWAEOjWl5oAE17kt-19">
          <mxGeometry x="72.5" y="13.5" width="56" height="29" as="geometry" />
        </mxCell>
        <mxCell id="j9-dcWAEOjWl5oAE17kt-33" value="" style="shape=parallelogram;perimeter=parallelogramPerimeter;whiteSpace=wrap;html=1;fixedSize=1;flipH=1;rotation=-90;container=0;" vertex="1" parent="j9-dcWAEOjWl5oAE17kt-19">
          <mxGeometry x="72.5" y="49" width="56" height="29" as="geometry" />
        </mxCell>
        <mxCell id="j9-dcWAEOjWl5oAE17kt-34" value="" style="shape=parallelogram;perimeter=parallelogramPerimeter;whiteSpace=wrap;html=1;fixedSize=1;flipH=1;rotation=-90;container=0;" vertex="1" parent="j9-dcWAEOjWl5oAE17kt-19">
          <mxGeometry x="72.5" y="85" width="56" height="29" as="geometry" />
        </mxCell>
        <mxCell id="j9-dcWAEOjWl5oAE17kt-35" value="" style="shape=parallelogram;perimeter=parallelogramPerimeter;whiteSpace=wrap;html=1;fixedSize=1;flipH=1;rotation=-90;container=0;" vertex="1" parent="j9-dcWAEOjWl5oAE17kt-19">
          <mxGeometry x="72.5" y="120.5" width="56" height="29" as="geometry" />
        </mxCell>
        <mxCell id="j9-dcWAEOjWl5oAE17kt-36" value="" style="group" vertex="1" connectable="0" parent="1">
          <mxGeometry x="960" y="140.5" width="115" height="223.5" as="geometry" />
        </mxCell>
        <mxCell id="j9-dcWAEOjWl5oAE17kt-37" value="" style="shape=parallelogram;perimeter=parallelogramPerimeter;whiteSpace=wrap;html=1;fixedSize=1;flipH=1;rotation=-90;" vertex="1" parent="j9-dcWAEOjWl5oAE17kt-36">
          <mxGeometry x="-13.5" y="74" width="56" height="29" as="geometry" />
        </mxCell>
        <mxCell id="j9-dcWAEOjWl5oAE17kt-38" value="" style="shape=parallelogram;perimeter=parallelogramPerimeter;whiteSpace=wrap;html=1;fixedSize=1;flipH=1;rotation=-90;" vertex="1" parent="j9-dcWAEOjWl5oAE17kt-36">
          <mxGeometry x="-13.5" y="109.5" width="56" height="29" as="geometry" />
        </mxCell>
        <mxCell id="j9-dcWAEOjWl5oAE17kt-39" value="" style="shape=parallelogram;perimeter=parallelogramPerimeter;whiteSpace=wrap;html=1;fixedSize=1;flipH=1;rotation=-90;" vertex="1" parent="j9-dcWAEOjWl5oAE17kt-36">
          <mxGeometry x="-13.5" y="145.5" width="56" height="29" as="geometry" />
        </mxCell>
        <mxCell id="j9-dcWAEOjWl5oAE17kt-40" value="" style="shape=parallelogram;perimeter=parallelogramPerimeter;whiteSpace=wrap;html=1;fixedSize=1;flipH=1;rotation=-90;" vertex="1" parent="j9-dcWAEOjWl5oAE17kt-36">
          <mxGeometry x="-13.5" y="181" width="56" height="29" as="geometry" />
        </mxCell>
        <mxCell id="j9-dcWAEOjWl5oAE17kt-41" value="" style="shape=parallelogram;perimeter=parallelogramPerimeter;whiteSpace=wrap;html=1;fixedSize=1;flipH=1;rotation=-90;" vertex="1" parent="j9-dcWAEOjWl5oAE17kt-36">
          <mxGeometry x="15" y="54" width="56" height="29" as="geometry" />
        </mxCell>
        <mxCell id="j9-dcWAEOjWl5oAE17kt-42" value="" style="shape=parallelogram;perimeter=parallelogramPerimeter;whiteSpace=wrap;html=1;fixedSize=1;flipH=1;rotation=-90;" vertex="1" parent="j9-dcWAEOjWl5oAE17kt-36">
          <mxGeometry x="15" y="89.5" width="56" height="29" as="geometry" />
        </mxCell>
        <mxCell id="j9-dcWAEOjWl5oAE17kt-43" value="" style="shape=parallelogram;perimeter=parallelogramPerimeter;whiteSpace=wrap;html=1;fixedSize=1;flipH=1;rotation=-90;" vertex="1" parent="j9-dcWAEOjWl5oAE17kt-36">
          <mxGeometry x="15" y="125.5" width="56" height="29" as="geometry" />
        </mxCell>
        <mxCell id="j9-dcWAEOjWl5oAE17kt-44" value="" style="shape=parallelogram;perimeter=parallelogramPerimeter;whiteSpace=wrap;html=1;fixedSize=1;flipH=1;rotation=-90;" vertex="1" parent="j9-dcWAEOjWl5oAE17kt-36">
          <mxGeometry x="15" y="161" width="56" height="29" as="geometry" />
        </mxCell>
        <mxCell id="j9-dcWAEOjWl5oAE17kt-45" value="" style="shape=parallelogram;perimeter=parallelogramPerimeter;whiteSpace=wrap;html=1;fixedSize=1;flipH=1;rotation=-90;" vertex="1" parent="j9-dcWAEOjWl5oAE17kt-36">
          <mxGeometry x="44" y="33.5" width="56" height="29" as="geometry" />
        </mxCell>
        <mxCell id="j9-dcWAEOjWl5oAE17kt-46" value="" style="shape=parallelogram;perimeter=parallelogramPerimeter;whiteSpace=wrap;html=1;fixedSize=1;flipH=1;rotation=-90;" vertex="1" parent="j9-dcWAEOjWl5oAE17kt-36">
          <mxGeometry x="44" y="69" width="56" height="29" as="geometry" />
        </mxCell>
        <mxCell id="j9-dcWAEOjWl5oAE17kt-47" value="" style="shape=parallelogram;perimeter=parallelogramPerimeter;whiteSpace=wrap;html=1;fixedSize=1;flipH=1;rotation=-90;fillColor=#f8cecc;strokeColor=#b85450;" vertex="1" parent="j9-dcWAEOjWl5oAE17kt-36">
          <mxGeometry x="44" y="105" width="56" height="29" as="geometry" />
        </mxCell>
        <mxCell id="j9-dcWAEOjWl5oAE17kt-48" value="" style="shape=parallelogram;perimeter=parallelogramPerimeter;whiteSpace=wrap;html=1;fixedSize=1;flipH=1;rotation=-90;" vertex="1" parent="j9-dcWAEOjWl5oAE17kt-36">
          <mxGeometry x="44" y="140.5" width="56" height="29" as="geometry" />
        </mxCell>
        <mxCell id="j9-dcWAEOjWl5oAE17kt-49" value="" style="shape=parallelogram;perimeter=parallelogramPerimeter;whiteSpace=wrap;html=1;fixedSize=1;flipH=1;rotation=-90;" vertex="1" parent="j9-dcWAEOjWl5oAE17kt-36">
          <mxGeometry x="72.5" y="13.5" width="56" height="29" as="geometry" />
        </mxCell>
        <mxCell id="j9-dcWAEOjWl5oAE17kt-50" value="" style="shape=parallelogram;perimeter=parallelogramPerimeter;whiteSpace=wrap;html=1;fixedSize=1;flipH=1;rotation=-90;" vertex="1" parent="j9-dcWAEOjWl5oAE17kt-36">
          <mxGeometry x="72.5" y="49" width="56" height="29" as="geometry" />
        </mxCell>
        <mxCell id="j9-dcWAEOjWl5oAE17kt-51" value="" style="shape=parallelogram;perimeter=parallelogramPerimeter;whiteSpace=wrap;html=1;fixedSize=1;flipH=1;rotation=-90;" vertex="1" parent="j9-dcWAEOjWl5oAE17kt-36">
          <mxGeometry x="72.5" y="85" width="56" height="29" as="geometry" />
        </mxCell>
        <mxCell id="j9-dcWAEOjWl5oAE17kt-52" value="" style="shape=parallelogram;perimeter=parallelogramPerimeter;whiteSpace=wrap;html=1;fixedSize=1;flipH=1;rotation=-90;" vertex="1" parent="j9-dcWAEOjWl5oAE17kt-36">
          <mxGeometry x="72.5" y="120.5" width="56" height="29" as="geometry" />
        </mxCell>
        <mxCell id="j9-dcWAEOjWl5oAE17kt-53" value="" style="rounded=0;whiteSpace=wrap;html=1;fillColor=none;strokeColor=none;" vertex="1" parent="1">
          <mxGeometry width="40" height="40" as="geometry" />
        </mxCell>
        <mxCell id="j9-dcWAEOjWl5oAE17kt-54" value="" style="rounded=0;whiteSpace=wrap;html=1;fillColor=none;strokeColor=none;" vertex="1" parent="1">
          <mxGeometry x="1600" width="40" height="40" as="geometry" />
        </mxCell>
        <mxCell id="j9-dcWAEOjWl5oAE17kt-55" value="f" style="ellipse;whiteSpace=wrap;html=1;fontStyle=3;fontSize=16;fontFamily=Georgia;fillColor=#999999;strokeColor=#314354;fontColor=#ffffff;" vertex="1" parent="1">
          <mxGeometry x="760" y="240" width="38.5" height="40" as="geometry" />
        </mxCell>
        <mxCell id="j9-dcWAEOjWl5oAE17kt-56" value="" style="endArrow=classic;html=1;rounded=0;strokeWidth=2;exitX=1;exitY=0.5;exitDx=0;exitDy=0;strokeColor=#000000;" edge="1" parent="1" source="j9-dcWAEOjWl5oAE17kt-55" target="j9-dcWAEOjWl5oAE17kt-47">
          <mxGeometry width="50" height="50" relative="1" as="geometry">
            <mxPoint x="496.5" y="270" as="sourcePoint" />
            <mxPoint x="1027.5" y="270" as="targetPoint" />
          </mxGeometry>
        </mxCell>
        <mxCell id="j9-dcWAEOjWl5oAE17kt-57" value="" style="endArrow=classic;html=1;rounded=0;strokeWidth=2;strokeColor=#000000;" edge="1" parent="1" source="j9-dcWAEOjWl5oAE17kt-13" target="j9-dcWAEOjWl5oAE17kt-55">
          <mxGeometry width="50" height="50" relative="1" as="geometry">
            <mxPoint x="711.5" y="330" as="sourcePoint" />
            <mxPoint x="761.5" y="280" as="targetPoint" />
          </mxGeometry>
        </mxCell>
        <mxCell id="j9-dcWAEOjWl5oAE17kt-58" value="" style="endArrow=classic;html=1;rounded=0;strokeWidth=2;strokeColor=#000000;exitX=0.75;exitY=1;exitDx=0;exitDy=0;" edge="1" parent="1" source="j9-dcWAEOjWl5oAE17kt-30" target="j9-dcWAEOjWl5oAE17kt-55">
          <mxGeometry width="50" height="50" relative="1" as="geometry">
            <mxPoint x="860" y="600" as="sourcePoint" />
            <mxPoint x="760" y="350" as="targetPoint" />
          </mxGeometry>
        </mxCell>
        <mxCell id="j9-dcWAEOjWl5oAE17kt-59" value="&lt;span style=&quot;font-size: 18px;&quot;&gt;Destination&lt;/span&gt;" style="rounded=0;whiteSpace=wrap;html=1;fontStyle=1;fontSize=18;strokeColor=none;fillColor=none;" vertex="1" parent="1">
          <mxGeometry x="950" y="90" width="120" height="40" as="geometry" />
        </mxCell>
        <mxCell id="j9-dcWAEOjWl5oAE17kt-60" value="&lt;span style=&quot;font-size: 18px;&quot;&gt;Source&lt;/span&gt;" style="rounded=0;whiteSpace=wrap;html=1;fontStyle=1;fontSize=18;strokeColor=none;fillColor=none;container=0;" vertex="1" parent="1">
          <mxGeometry x="390" y="10.5" width="120" height="40" as="geometry" />
        </mxCell>
      </root>
    </mxGraphModel>
  </diagram>
</mxfile>
